<svg width="1440" height="256" viewBox="0 0 1440 256" fill="none" xmlns="http://www.w3.org/2000/svg">
<path d="M0 3.05176e-05L26.7 48C53.3 96 107 192 160 208C213.3 224 267 160 320 117.3C373.3 75 427 53 480 80C533.3 107 587 181 640 213.3C693.3 245 747 235 800 218.7C853.3 203 907 181 960 176C1013.3 171 1067 181 1120 176C1173.3 171 1227 149 1280 160C1333.3 171 1387 213 1413 234.7L1440 256V3.05176e-05H1413.3C1386.7 3.05176e-05 1333 3.05176e-05 1280 3.05176e-05C1226.7 3.05176e-05 1173 3.05176e-05 1120 3.05176e-05C1066.7 3.05176e-05 1013 3.05176e-05 960 3.05176e-05C906.7 3.05176e-05 853 3.05176e-05 800 3.05176e-05C746.7 3.05176e-05 693 3.05176e-05 640 3.05176e-05C586.7 3.05176e-05 533 3.05176e-05 480 3.05176e-05C426.7 3.05176e-05 373 3.05176e-05 320 3.05176e-05C266.7 3.05176e-05 213 3.05176e-05 160 3.05176e-05C106.7 3.05176e-05 53 3.05176e-05 27 3.05176e-05H0Z" fill="#EBF5FF"/>
</svg>
