<svg
		class="1440"
		height="356"
		viewBox="0 0 1440 356"
		fill="none"
		xmlns="http://www.w3.org/2000/svg"
	>
		<path
			d="M1440 -1C1440 -1 1441 34.5 1435.5 79C1430 123.5 1413.3 147.188 1413.3 147.188C1386.7 195.375 1333 291.75 1280 307.812C1226.7 323.875 1173 259.625 1120 216.758C1066.7 174.293 1013 152.207 960 179.312C906.7 206.418 853 280.707 800 313.133C746.7 344.957 693 334.918 640 318.554C586.7 302.793 533 280.707 480 275.688C426.7 270.668 373 280.707 320 275.688C266.7 270.668 213 248.582 160 259.625C106.7 270.668 53 312.832 27 334.617L0 356V-1H26.7C53.2999 -1 107 -1 160 -1C213.3 -1 267 -1 320 -1C373.3 -1 427 -1 480 -1C533.3 -1 587 -1 640 -1C693.3 -1 747 -1 800 -1C853.3 -1 907 -1 960 -1C1013.3 -1 1067 -1 1120 -1C1173.3 -1 1227 -1 1280 -1C1333.3 -1 1387 -1 1413 -1H1440Z"
			fill="#0075FF"
			fill-opacity="0.03"
		/>
		<path
			d="M0.0710449 -1L26.771 46.8125C53.371 94.6251 107.071 140.25 160.071 156.188C213.371 172.125 267.071 158.375 320.071 115.842C373.371 73.7071 427.071 51.793 480.071 78.6875C533.371 105.582 587.071 179.293 640.071 211.467C693.371 243.043 747.071 233.082 800.071 216.846C853.371 201.207 907.071 179.293 960.071 174.313C1013.37 169.332 1067.07 179.293 1120.07 174.313C1173.37 169.332 1227.07 147.418 1280.07 158.375C1333.37 169.332 1387.07 211.168 1413.07 232.783L1440.07 254V-1H1413.37C1386.77 -1 1333.07 -1 1280.07 -1C1226.77 -1 1173.07 -1 1120.07 -1C1066.77 -1 1013.07 -1 960.071 -1C906.771 -1 853.071 -1 800.071 -1C746.771 -1 693.071 -1 640.071 -1C586.771 -1 533.071 -1 480.071 -1C426.771 -1 373.071 -1 320.071 -1C266.771 -1 213.071 -1 160.071 -1C106.771 -1 53.071 -1 27.071 -1H0.0710449Z"
			fill="#0075FF"
			fill-opacity="0.03"
		/>
		<path
			d="M48.1044 102L0.0710572 70.0002L0.0710449 0.000305176L1441.07 0.00030911L1441.07 198L1393.04 182C1345 166 1248.94 134 1152.87 134C1100.5 134 1048.13 143.51 995.76 153.02C952.064 160.955 908.367 168.89 864.671 171.3C820.832 173.902 776.992 170.734 733.153 167.567C680.926 163.793 628.698 160.02 576.471 166C540.72 170.094 504.969 178.481 469.218 186.868C408.902 201.018 348.587 215.167 288.271 208.7C192.204 198 96.1378 134 48.1044 102Z"
			fill="#0075FF"
			fill-opacity="0.03"
		/>
	</svg>